<svg xmlns="http://www.w3.org/2000/svg" width="140" height="31" viewBox="0 0 140 31" fill="none"><g clip-path="url(#clip0_708_335)"><path d="M12.344 12.8411L11.2957 15.0379C10.5901 14.313 9.77684 13.822 8.10842 13.822C5.64899 13.822 3.59539 15.8707 3.14552 19.1558C2.65373 22.7404 4.13014 24.5742 6.56833 24.5742C7.80921 24.5742 9.07127 24.2335 10.162 23.4441L10.5471 25.6626C8.89991 26.7938 7.44525 26.9859 6.05479 26.9859C2.24736 26.9859 -0.597719 24.1478 0.107841 19.1341C0.792733 14.3559 4.25798 11.3691 8.25799 11.3691C9.69144 11.3691 11.2532 11.6464 12.344 12.8411Z" fill="#1C3659"></path><path d="M19.9985 22.1431H15.8271L13.6664 26.7721H10.6929L18.0303 11.7099H20.7471L23.6139 26.7721H20.8966L19.9985 22.1431ZM19.5916 20.2436L18.9073 15.1453L16.7258 20.2436H19.5916Z" fill="#1C3659"></path><path d="M33.3641 26.7721L32.3375 23.1886C32.1025 22.3775 31.4818 20.5637 31.4818 20.5637C31.354 20.5426 31.0113 20.5426 30.6054 20.5426H28.5943L27.7174 26.7721H24.7227L26.8399 11.7099H32.3375C35.675 11.7099 37.6644 12.4993 37.1721 15.9982C36.8723 18.1103 35.7821 19.3479 34.0277 19.9881C34.5413 20.7346 34.7551 21.46 35.076 22.4203L36.4877 26.7721H33.3641ZM28.8935 18.3458H31.4818C33.2786 18.3458 34.1773 17.6839 34.4129 16.041C34.6267 14.5897 33.8134 13.9712 32.1667 13.9712H29.5142L28.8935 18.3458Z" fill="#1C3659"></path><path d="M47.3079 19.9881H41.511L40.8696 24.4891L47.415 24.5742L46.9869 26.7721H37.5752L39.6924 11.7099H48.9126L48.3774 13.9929H42.3667L41.832 17.7267H47.6288L47.3079 19.9881Z" fill="#1C3659"></path><path d="M50.5104 26.7721H48.8882L51.0098 11.6301H52.8817L56.5216 23.2662L63.3846 11.6301H65.1738L63.0316 26.7721H61.4088L63.0941 14.8659L57.2075 24.9258H55.315L52.1957 14.8035L50.5104 26.7721Z" fill="#1C3659"></path><path d="M74.1116 21.9803H68.4959L66.1464 26.7721H64.4409L71.8447 11.6301H73.8417L76.7326 26.7721H74.9852L74.1116 21.9803ZM73.7373 20.5903L72.6145 13.3717L69.2243 20.5903H73.7373Z" fill="#1C3659"></path><path d="M78.5377 24.3041C79.7236 24.9682 81.2626 25.4651 83.0719 25.4651C85.0891 25.4651 86.2957 24.5108 86.5872 22.4583C86.7532 21.2338 86.3996 20.4042 84.6735 19.9268L81.9698 19.1802C80.0767 18.6616 78.9952 17.5417 79.2868 15.53C79.7024 12.5845 81.9698 11.3181 85.0891 11.3181C86.8364 11.3181 88.334 11.7755 89.2071 12.4174L88.4999 13.828C87.8139 13.3934 86.3789 12.8747 84.8394 12.8747C82.5938 12.8747 81.3045 13.6837 81.0543 15.4258C80.8878 16.608 81.5536 17.2515 82.8641 17.6041L85.4432 18.2883C87.5017 18.8276 88.6871 19.9268 88.334 22.3959C87.8972 25.5482 85.7136 27 82.7809 27C80.3057 27 78.6209 26.3159 77.8311 25.7554L78.5377 24.3041Z" fill="#1C3659"></path><path d="M90.5555 11.6301H100.746L100.518 13.1856H96.2745L94.382 26.7721H92.6564L94.549 13.1856H90.3472L90.5555 11.6301Z" fill="#1C3659"></path><path d="M108.959 19.7613H102.699L101.95 25.196H108.876L108.522 26.7721H99.9951L102.117 11.6301H110.519L110.166 13.1856H103.635L102.928 18.2053H109.188L108.959 19.7613Z" fill="#1C3659"></path><path d="M119.687 26.7721L118.418 22.0633C118.169 21.1714 117.961 20.3218 117.732 19.8031C117.462 19.8237 116.422 19.8438 116.089 19.8438C115.901 19.8438 113.593 19.7613 113.593 19.7613L112.616 26.7721H110.89L113.011 11.6301H117.545C120.956 11.6301 123.015 12.1488 122.537 15.5706C122.266 17.4376 121.205 18.91 119.272 19.4287C119.25 19.4287 119.812 20.7151 120.041 21.4822L121.622 26.7721L119.687 26.7721ZM113.802 18.2465L117.171 18.2883C119.729 18.3089 120.582 17.4169 120.831 15.613C121.06 14.0358 120.436 13.1856 118.273 13.1856H114.529L113.802 18.2465Z" fill="#1C3659"></path><path d="M133.276 18.7451C133.276 18.7451 146.674 14.4487 133.276 1.0835C119.875 14.4487 133.276 18.7451 133.276 18.7451Z" fill="#AF518C"></path><path d="M133.276 19.5501L133.04 19.4746C132.828 19.4065 127.831 17.7571 126.751 13.3023C125.871 9.67105 127.883 5.37781 132.733 0.541757L133.276 0L133.819 0.541757C138.667 5.37808 140.679 9.67132 139.799 13.3025C138.719 17.7571 133.723 19.4065 133.511 19.4746L133.276 19.5501ZM133.276 2.17708C129.222 6.37442 127.53 9.99398 128.245 12.9422C129.004 16.0778 132.351 17.5727 133.275 17.9298C134.198 17.5698 137.555 16.0616 138.308 12.9335C139.017 9.98683 137.324 6.37018 133.276 2.17708Z" fill="#1C3659"></path><path d="M133.276 26.8589C132.747 26.8589 132.317 26.4325 132.317 25.9051V14.4487C132.317 13.9213 132.747 13.4943 133.276 13.4943C133.805 13.4943 134.232 13.9213 134.232 14.4487V25.9051C134.232 26.4325 133.805 26.8589 133.276 26.8589Z" fill="#1C3659"></path></g><defs><clipPath id="clip0_708_335"><rect width="140" height="27" fill="white"></rect></clipPath></defs></svg>